<?xml version="1.0" encoding="utf-8"?>
<!-- Generator: Adobe Illustrator 23.0.3, SVG Export Plug-In . SVG Version: 6.00 Build 0)  -->
<!DOCTYPE svg PUBLIC "-//W3C//DTD SVG 1.1//EN" "http://www.w3.org/Graphics/SVG/1.1/DTD/svg11.dtd" [
	<!ENTITY ns_extend "http://ns.adobe.com/Extensibility/1.0/">
	<!ENTITY ns_ai "http://ns.adobe.com/AdobeIllustrator/10.0/">
	<!ENTITY ns_graphs "http://ns.adobe.com/Graphs/1.0/">
	<!ENTITY ns_vars "http://ns.adobe.com/Variables/1.0/">
	<!ENTITY ns_imrep "http://ns.adobe.com/ImageReplacement/1.0/">
	<!ENTITY ns_sfw "http://ns.adobe.com/SaveForWeb/1.0/">
	<!ENTITY ns_custom "http://ns.adobe.com/GenericCustomNamespace/1.0/">
	<!ENTITY ns_adobe_xpath "http://ns.adobe.com/XPath/1.0/">
]>
<svg version="1.1" id="Layer_1" xmlns:x="&ns_extend;" xmlns:i="&ns_ai;" xmlns:graph="&ns_graphs;"
	 xmlns="http://www.w3.org/2000/svg" xmlns:xlink="http://www.w3.org/1999/xlink" x="0px" y="0px" viewBox="0 0 32 32"
	 style="enable-background:new 0 0 32 32;" xml:space="preserve">
<style type="text/css">
	.st0{fill:none;}
	.st1{fill:#FFFFFF;}
	.st2{fill:#1B4690;}
</style>
<metadata>
	<sfw  xmlns="&ns_sfw;">
		<slices></slices>
		<sliceSourceBounds  bottomLeftOrigin="true" height="524.8" width="2575.6" x="-1271" y="-486.4"></sliceSourceBounds>
	</sfw>
</metadata>
<line class="st0" x1="-11" y1="25.6" x2="107.9" y2="25.6"/>
<path class="st1" d="M92.8,16.2c-50.7,0-90.4,0-118.9,0"/>
<polygon class="st2" points="6.8,2.7 25.7,3.2 25.7,2.3 "/>
<polygon class="st2" points="6.8,4.3 25.7,4.7 25.7,3.8 "/>
<polygon class="st2" points="6.8,5.8 25.7,6.3 25.7,5.4 "/>
<polygon class="st2" points="6.8,7.3 25.7,7.8 25.7,6.9 "/>
<polygon class="st2" points="7,24.5 25.8,25 25.8,24.1 "/>
<polygon class="st2" points="7,26.1 25.8,26.5 25.8,25.6 "/>
<polygon class="st2" points="6.9,27.6 25.8,28.1 25.8,27.2 "/>
<polygon class="st2" points="6.9,29.1 25.8,29.6 25.8,28.7 "/>
<polygon class="st2" points="17,9 25.2,9.5 25.2,8.6 "/>
<polygon class="st2" points="13.9,13.6 22.1,14 22.1,13.2 "/>
<polygon class="st2" points="11.7,16.6 19.6,17 19.6,16.2 "/>
<polygon class="st2" points="10.8,18.2 18.8,18.6 18.8,17.8 "/>
<polygon class="st2" points="9.7,19.7 17.8,20.1 17.8,19.2 "/>
<polygon class="st2" points="8.7,21.2 16.8,21.6 16.8,20.8 "/>
<polygon class="st2" points="7.5,22.8 15.5,23.2 15.5,22.4 "/>
<polygon class="st2" points="16.1,10.5 24.3,10.9 24.3,10.1 "/>
<polygon class="st2" points="15,12 23.1,12.4 23.1,11.6 "/>
<polygon class="st2" points="12.6,15.1 20.7,15.5 20.7,14.7 "/>
</svg>
