<?xml version="1.0" encoding="utf-8"?>
<!-- Generator: Adobe Illustrator 23.0.3, SVG Export Plug-In . SVG Version: 6.00 Build 0)  -->
<!DOCTYPE svg PUBLIC "-//W3C//DTD SVG 1.1//EN" "http://www.w3.org/Graphics/SVG/1.1/DTD/svg11.dtd" [
	<!ENTITY ns_extend "http://ns.adobe.com/Extensibility/1.0/">
	<!ENTITY ns_ai "http://ns.adobe.com/AdobeIllustrator/10.0/">
	<!ENTITY ns_graphs "http://ns.adobe.com/Graphs/1.0/">
	<!ENTITY ns_vars "http://ns.adobe.com/Variables/1.0/">
	<!ENTITY ns_imrep "http://ns.adobe.com/ImageReplacement/1.0/">
	<!ENTITY ns_sfw "http://ns.adobe.com/SaveForWeb/1.0/">
	<!ENTITY ns_custom "http://ns.adobe.com/GenericCustomNamespace/1.0/">
	<!ENTITY ns_adobe_xpath "http://ns.adobe.com/XPath/1.0/">
]>
<svg version="1.1" id="Layer_1" xmlns:x="&ns_extend;" xmlns:i="&ns_ai;" xmlns:graph="&ns_graphs;"
	 xmlns="http://www.w3.org/2000/svg" xmlns:xlink="http://www.w3.org/1999/xlink" x="0px" y="0px" viewBox="0 0 38 38"
	 style="enable-background:new 0 0 38 38;" xml:space="preserve">
<style type="text/css">
	.st0{display:none;fill:none;}
	.st1{display:none;fill:#FFFFFF;}
	.st2{fill:#FFFFFF;}
</style>
<metadata>
	<sfw  xmlns="&ns_sfw;">
		<slices></slices>
		<sliceSourceBounds  bottomLeftOrigin="true" height="27.3" width="134" x="-26.1" y="-29.6"></sliceSourceBounds>
	</sfw>
</metadata>
<line class="st0" x1="-8" y1="28.6" x2="110.9" y2="28.6"/>
<path class="st1" d="M95.8,19.2c-50.7,0-90.4,0-118.9,0"/>
<polygon class="st2" points="9.8,5.7 28.7,6.2 28.7,5.3 "/>
<polygon class="st2" points="9.8,7.3 28.7,7.7 28.7,6.8 "/>
<polygon class="st2" points="9.8,8.8 28.7,9.3 28.7,8.4 "/>
<polygon class="st2" points="9.8,10.3 28.7,10.8 28.7,9.9 "/>
<polygon class="st2" points="10,27.5 28.8,28 28.8,27.1 "/>
<polygon class="st2" points="10,29.1 28.8,29.5 28.8,28.6 "/>
<polygon class="st2" points="9.9,30.6 28.8,31.1 28.8,30.2 "/>
<polygon class="st2" points="9.9,32.1 28.8,32.6 28.8,31.7 "/>
<polygon class="st2" points="20,12 28.2,12.5 28.2,11.6 "/>
<polygon class="st2" points="16.9,16.6 25.1,17 25.1,16.2 "/>
<polygon class="st2" points="14.7,19.6 22.6,20 22.6,19.2 "/>
<polygon class="st2" points="13.8,21.2 21.8,21.6 21.8,20.8 "/>
<polygon class="st2" points="12.7,22.7 20.8,23.1 20.8,22.2 "/>
<polygon class="st2" points="11.7,24.2 19.8,24.6 19.8,23.8 "/>
<polygon class="st2" points="10.5,25.8 18.5,26.2 18.5,25.4 "/>
<polygon class="st2" points="19.1,13.5 27.3,13.9 27.3,13.1 "/>
<polygon class="st2" points="18,15 26.1,15.4 26.1,14.6 "/>
<polygon class="st2" points="15.6,18.1 23.7,18.5 23.7,17.7 "/>
</svg>
