<?xml version="1.0" encoding="utf-8"?>
<!-- Generator: Adobe Illustrator 23.0.3, SVG Export Plug-In . SVG Version: 6.00 Build 0)  -->
<!DOCTYPE svg PUBLIC "-//W3C//DTD SVG 1.1//EN" "http://www.w3.org/Graphics/SVG/1.1/DTD/svg11.dtd" [
	<!ENTITY ns_extend "http://ns.adobe.com/Extensibility/1.0/">
	<!ENTITY ns_ai "http://ns.adobe.com/AdobeIllustrator/10.0/">
	<!ENTITY ns_graphs "http://ns.adobe.com/Graphs/1.0/">
	<!ENTITY ns_vars "http://ns.adobe.com/Variables/1.0/">
	<!ENTITY ns_imrep "http://ns.adobe.com/ImageReplacement/1.0/">
	<!ENTITY ns_sfw "http://ns.adobe.com/SaveForWeb/1.0/">
	<!ENTITY ns_custom "http://ns.adobe.com/GenericCustomNamespace/1.0/">
	<!ENTITY ns_adobe_xpath "http://ns.adobe.com/XPath/1.0/">
]>
<svg version="1.1" id="Layer_1" xmlns:x="&ns_extend;" xmlns:i="&ns_ai;" xmlns:graph="&ns_graphs;"
	 xmlns="http://www.w3.org/2000/svg" xmlns:xlink="http://www.w3.org/1999/xlink" x="0px" y="0px" viewBox="0 0 2080.9 604.3"
	 style="enable-background:new 0 0 2080.9 604.3;" xml:space="preserve">
<style type="text/css">
	.st0{fill:none;}
	.st1{fill:#FEFEFE;}
	.st2{fill:#0F4392;}
	.st3{display:none;}
	.st4{display:none;fill:#0F4392;}
</style>
<metadata>
	<sfw  xmlns="&ns_sfw;">
		<slices></slices>
		<sliceSourceBounds  bottomLeftOrigin="true" height="4039.7" width="2665.8" x="133.4" y="378.4"></sliceSourceBounds>
	</sfw>
</metadata>
<polygon class="st0" points="241.8,505.3 2526.8,505.3 2155.1,-1081.5 526.8,-426 "/>
<g>
	<path class="st1" d="M-48.9,324.2c0-665,0-554.5,0-2045.8c761.8,0,1523.6,0,2285.7,0c0,681.8,0,1363.8,0,2045.8
		C1262,324.2,500.1,324.2-48.9,324.2z"/>
</g>
<g>
	<path class="st2" d="M549,53.5l-188.6,526H220.7L34.3,53.5h132.9l114.2,366.1c6.1,19.8,9.8,37.3,11.1,52.5h2.3
		c1.8-16.4,5.7-34.3,11.8-53.9L419.9,53.5L549,53.5L549,53.5z"/>
	<path class="st2" d="M1145,579.6h-123.3v-526H1145V579.6z"/>
	<path class="st2" d="M1653.9,150h-156.2v429.5H1374V150h-155.4V53.5h435.2L1653.9,150L1653.9,150z"/>
	<path class="st2" d="M2055.9,579.6h-328.3v-526h315.7V150h-192.4v117h179.1v96.1h-179.1v120.3h205V579.6z"/>
</g>
<g id="ZSPEED.psd" class="st3">
	
		<image style="display:inline;overflow:visible;" width="249" height="325" id="ZSPEED_2_" xlink:href="12FAE04F.png"  transform="matrix(1.561 0 0 1.6984 -92.1212 1766.1156)">
	</image>
</g>
<polygon class="st2" points="583.1,65.5 946.2,74.1 946.2,56.9 "/>
<polygon class="st2" points="583.1,95.6 946.2,104.2 946.2,87 "/>
<polygon class="st2" points="582.9,125.7 946,134.3 946,117.1 "/>
<polygon class="st2" points="582.9,153.9 946,162.6 946,145.3 "/>
<polygon class="st2" points="585.9,484.6 949.1,493.2 949.1,475.9 "/>
<polygon class="st2" points="585.9,514.7 949.1,523.3 949.1,506 "/>
<polygon class="st2" points="585.7,544.8 948.8,553.4 948.8,536.1 "/>
<polygon class="st2" points="585.7,573 948.8,581.6 948.8,564.4 "/>
<polygon class="st2" points="779.1,187.2 935.8,195.1 935.8,179.3 "/>
<polygon class="st2" points="719.7,274.7 876.3,282.6 876.3,266.8 "/>
<polygon class="st2" points="676.4,332.4 829.3,340.3 829.3,324.5 "/>
<polygon class="st2" points="660.2,363.9 813.1,371.8 813.1,356 "/>
<polygon class="st4" points="-17,2112.6 135.9,2121.2 135.9,2103.9 "/>
<polygon class="st2" points="638.6,392.1 795.2,399.9 795.2,383.2 "/>
<polygon class="st2" points="619.2,420.3 775.8,428.2 775.8,412.4 "/>
<polygon class="st2" points="595.5,451.8 750.2,458.7 750.2,443.9 "/>
<polygon class="st4" points="-139,2202.4 17.6,2211.1 17.6,2193.8 "/>
<polygon class="st2" points="762.1,214.9 918.7,222.8 918.7,207 "/>
<polygon class="st2" points="740.4,243.9 897,251.8 897,236 "/>
<polygon class="st2" points="693.6,303.5 850.3,311.4 850.3,295.7 "/>
</svg>
